<svg xmlns="http://www.w3.org/2000/svg" width="90" height="15" fill="none" viewBox="0 0 90 15">
  <path fill="#7A7ED0" d="M0 4.2857C0 1.9187 1.9188 0 4.2857 0h6.4286C13.0812 0 15 1.9188 15 4.2857v6.4286C15 13.0812 13.0812 15 10.7143 15H4.2857C1.9187 15 0 13.0812 0 10.7143V4.2857Z"/>
  <path fill="#fff" d="M3.4766 6.2199c0-.5753.4685-1.0417 1.0465-1.0417s1.0465.4664 1.0465 1.0417v5.2083c-1.156 0-2.093-.9327-2.093-2.0833v-3.125ZM9.407 8.5714c0-.5917.4685-1.0714 1.0465-1.0714S11.5 7.9797 11.5 8.5714H9.407Z"/>
  <path fill="#fff" d="M9.407 11.4284c1.1559 0 2.093-.9327 2.093-2.0833v-.7738H9.407v2.8571Zm-2.9617-6.81c0-.5786.4686-1.0476 1.0465-1.0476.578 0 1.0465.469 1.0465 1.0476v6.8095h-2.093V4.6184Z"/>
  <path fill="currentColor" d="M21.1 6.1V5h5.75v1.1h-2.3V12H23.4V6.1h-2.3Zm7.0969 5.24c-.5-.5133-.75-1.1433-.75-1.89 0-.7467.25-1.3733.75-1.88.5066-.5133 1.1233-.77 1.85-.77.7266 0 1.34.2567 1.84.77.5066.5067.76 1.1333.76 1.88v.35h-4.15c.08.42.2633.75.55.99.2866.24.62.36 1 .36.4666 0 .84-.1167 1.12-.35.1266-.0933.2366-.21.33-.35h1.1c-.14.3267-.3167.6033-.53.83-.5467.5467-1.22.82-2.02.82-.7267 0-1.3434-.2533-1.85-.76Zm.35-2.39h3c-.06-.3333-.22-.6167-.48-.85-.2534-.2333-.5934-.35-1.02-.35-.36 0-.68.11-.96.33-.28.2133-.46.5033-.54.87ZM33.5977 12l1.4-5.1h2.25l1.4 5.1h-1.1l-1.1-4.15h-.65l-1.1 4.15h-1.1Zm6.7464-.66c-.5-.5133-.75-1.1433-.75-1.89 0-.7467.25-1.3733.75-1.88.5067-.5133 1.1234-.77 1.85-.77.7267 0 1.34.2567 1.84.77.5067.5067.76 1.1333.76 1.88v.35h-4.15c.08.42.2634.75.55.99.2867.24.62.36 1 .36.4667 0 .84-.1167 1.12-.35.1267-.0933.2367-.21.33-.35h1.1c-.14.3267-.3166.6033-.53.83-.5466.5467-1.22.82-2.02.82-.7266 0-1.3433-.2533-1.85-.76Zm.35-2.39h3c-.06-.3333-.22-.6167-.48-.85-.2533-.2333-.5933-.35-1.02-.35-.36 0-.68.11-.96.33-.28.2133-.46.5033-.54.87ZM46.2949 12V6.9h1.05v2h.75l1.55-2h1.2l-1.85 2.35 2 2.75h-1.3l-1.55-2.15h-.8V12h-1.05Zm6.1674-.66c-.5066-.5133-.76-1.1433-.76-1.89 0-.7467.2534-1.3733.76-1.88.5134-.5133 1.1434-.77 1.89-.77.7467 0 1.3734.2567 1.88.77.5134.5067.77 1.1333.77 1.88 0 .7467-.2566 1.3767-.77 1.89-.5066.5067-1.1333.76-1.88.76-.7466 0-1.3766-.2533-1.89-.76Zm.77-3.12c-.2866.3067-.43.7167-.43 1.23s.1434.9267.43 1.24c.2867.3067.66.46 1.12.46.46 0 .8334-.1533 1.12-.46.2867-.3133.43-.7267.43-1.24s-.1433-.9233-.43-1.23c-.2866-.3133-.66-.47-1.12-.47-.46 0-.8333.1567-1.12.47ZM58.5008 12V6.9h1.5l1.35 3.05h.2l1.35-3.05h1.5V12h-1.05V8.4l.01-.1h-.05l-1.26 2.8h-1.2l-1.26-2.8h-.05l.01.1V12h-1.05Zm10.1043-5.9V5h5.75v1.1h-2.3V12h-1.15V6.1h-2.3Zm7.0472 5.9V6.9h1.05v3.4l-.01.1h.1l2.31-3.5h1.15V12h-1.05V8.6l.01-.1h-.1l-2.31 3.5h-1.15Zm6.4008 0V6.9h1.5l1.35 3.05h.2l1.35-3.05h1.5V12h-1.05V8.4l.01-.1h-.05l-1.26 2.8h-1.2l-1.26-2.8h-.05l.01.1V12h-1.05Z"/>
</svg>
