<svg xmlns="http://www.w3.org/2000/svg" width="12" height="12" fill="none" viewBox="0 0 12 12">
  <g clip-path="url(#a)">
    <path stroke="#7A7ED0" stroke-linecap="round" stroke-linejoin="round" d="M11.0002 8.46v1.5a.999.999 0 0 1-.324.741 1 1 0 0 1-.766.259 9.8942 9.8942 0 0 1-4.315-1.535 9.75 9.75 0 0 1-3-3 9.895 9.895 0 0 1-1.535-4.335A1.0001 1.0001 0 0 1 2.0552 1h1.5a1 1 0 0 1 1 .86c.0633.48.1807.9514.35 1.405a1 1 0 0 1-.225 1.055l-.635.635a8 8 0 0 0 3 3l.635-.635a1 1 0 0 1 1.055-.225c.4536.1693.925.2867 1.405.35a1 1 0 0 1 .86 1.015Z"/>
  </g>
  <defs>
    <clipPath id="a">
      <path fill="#fff" d="M0 0h12v12H0z"/>
    </clipPath>
  </defs>
</svg>
