<svg width="307" height="299" viewBox="0 0 307 299" fill="none" xmlns="http://www.w3.org/2000/svg">
<path opacity="0.24" d="M8 0.5H299C303.142 0.5 306.5 3.85786 306.5 8V291C306.5 295.142 303.142 298.5 299 298.5H18C13.8579 298.5 10.5 295.142 10.5 291V99.0914C10.5 96.5775 9.38721 94.1925 7.46071 92.5775L3.18173 88.9903C1.48188 87.5653 0.5 85.4609 0.5 83.2428V7.99999C0.5 3.85786 3.85786 0.5 8 0.5Z" stroke="white"/>
<path d="M27.05 25V14.5H34.625V16.15H28.775V18.85H33.5V20.5H28.775V23.35H34.625V25H27.05ZM35.2303 25L38.0803 20.875L35.4553 17.35H37.2553L39.4303 20.35H40.4053V17.35H41.9803V20.35H42.9553L45.1303 17.35H46.9303L44.3053 20.875L47.1553 25H45.2803L43.0303 21.775H41.9803V25H40.4053V21.775H39.3553L37.1053 25H35.2303ZM48.5076 24.01C47.7576 23.24 47.3826 22.295 47.3826 21.175C47.3826 20.055 47.7576 19.115 48.5076 18.355C49.2676 17.585 50.1926 17.2 51.2826 17.2C52.3726 17.2 53.2926 17.585 54.0426 18.355C54.8026 19.115 55.1826 20.055 55.1826 21.175V21.7H48.9576C49.0776 22.33 49.3526 22.825 49.7826 23.185C50.2126 23.545 50.7126 23.725 51.2826 23.725C51.9826 23.725 52.5426 23.55 52.9626 23.2C53.1526 23.06 53.3176 22.885 53.4576 22.675H55.1076C54.8976 23.165 54.6326 23.58 54.3126 23.92C53.4926 24.74 52.4826 25.15 51.2826 25.15C50.1926 25.15 49.2676 24.77 48.5076 24.01ZM49.0326 20.425H53.5326C53.4426 19.925 53.2026 19.5 52.8126 19.15C52.4326 18.8 51.9226 18.625 51.2826 18.625C50.7426 18.625 50.2626 18.79 49.8426 19.12C49.4226 19.44 49.1526 19.875 49.0326 20.425ZM55.7088 26.65V23.575H56.4588L58.1838 17.35H61.5588L63.2838 23.575H64.0338V26.65H62.6088V25H57.1338V26.65H55.7088ZM58.1088 23.575H61.6338L60.3588 18.775H59.3838L58.1088 23.575ZM65.0152 25V17.35H66.5902V20.425H70.3402V17.35H71.9152V25H70.3402V21.85H66.5902V25H65.0152ZM74.3914 24.01C73.6414 23.24 73.2664 22.295 73.2664 21.175C73.2664 20.055 73.6414 19.115 74.3914 18.355C75.1514 17.585 76.0764 17.2 77.1664 17.2C78.2564 17.2 79.1764 17.585 79.9264 18.355C80.6864 19.115 81.0664 20.055 81.0664 21.175V21.7H74.8414C74.9614 22.33 75.2364 22.825 75.6664 23.185C76.0964 23.545 76.5964 23.725 77.1664 23.725C77.8664 23.725 78.4264 23.55 78.8464 23.2C79.0364 23.06 79.2014 22.885 79.3414 22.675H80.9914C80.7814 23.165 80.5164 23.58 80.1964 23.92C79.3764 24.74 78.3664 25.15 77.1664 25.15C76.0764 25.15 75.1514 24.77 74.3914 24.01ZM74.9164 20.425H79.4164C79.3264 19.925 79.0864 19.5 78.6964 19.15C78.3164 18.8 77.8064 18.625 77.1664 18.625C76.6264 18.625 76.1464 18.79 75.7264 19.12C75.3064 19.44 75.0364 19.875 74.9164 20.425ZM82.4176 25V17.35H86.2426C86.9726 17.35 87.5426 17.525 87.9526 17.875C88.3626 18.225 88.5676 18.675 88.5676 19.225C88.5676 19.815 88.3676 20.27 87.9676 20.59C87.7676 20.74 87.5676 20.835 87.3676 20.875V20.935C87.6276 20.975 87.8776 21.075 88.1176 21.235C88.6176 21.575 88.8676 22.1 88.8676 22.81C88.8676 23.43 88.6326 23.95 88.1626 24.37C87.6926 24.79 87.0776 25 86.3176 25H82.4176ZM83.9926 20.35H86.0926C86.6926 20.35 86.9926 20.075 86.9926 19.525C86.9926 19.025 86.6926 18.775 86.0926 18.775H83.9926V20.35ZM83.9926 23.575H86.2426C86.5726 23.575 86.8276 23.49 87.0076 23.32C87.1976 23.14 87.2926 22.9 87.2926 22.6C87.2926 22.33 87.1976 22.115 87.0076 21.955C86.8276 21.785 86.5726 21.7 86.2426 21.7H83.9926V23.575ZM90.2984 25V17.35H91.8734V20.425H95.6234V17.35H97.1984V25H95.6234V21.85H91.8734V25H90.2984ZM105.9 25V17.35H107.475V25H105.9ZM98.9996 25V17.35H100.575V19.9H102.15C103.03 19.9 103.735 20.14 104.265 20.62C104.805 21.1 105.075 21.71 105.075 22.45C105.075 23.19 104.805 23.8 104.265 24.28C103.735 24.76 103.03 25 102.15 25H98.9996ZM100.575 23.575H102.15C102.56 23.575 102.875 23.475 103.095 23.275C103.315 23.075 103.425 22.8 103.425 22.45C103.425 22.1 103.315 21.825 103.095 21.625C102.875 21.425 102.56 21.325 102.15 21.325H100.575V23.575ZM109.268 25V17.35H110.843V22.45L110.828 22.6H110.978L114.443 17.35H116.168V25H114.593V19.9L114.608 19.75H114.458L110.993 25H109.268ZM110.393 14.35H111.668C111.668 14.9 112.018 15.175 112.718 15.175C113.418 15.175 113.768 14.9 113.768 14.35H115.043C115.043 14.94 114.843 15.415 114.443 15.775C114.053 16.125 113.478 16.3 112.718 16.3C111.958 16.3 111.378 16.125 110.978 15.775C110.588 15.415 110.393 14.94 110.393 14.35ZM120.894 18.775V17.35H127.569V18.775H125.019V25H123.444V18.775H120.894ZM128.546 27.85V17.35H130.121V18.325H130.196C130.376 18.115 130.581 17.93 130.811 17.77C131.351 17.39 131.946 17.2 132.596 17.2C133.626 17.2 134.481 17.57 135.161 18.31C135.851 19.04 136.196 19.995 136.196 21.175C136.196 22.355 135.851 23.315 135.161 24.055C134.481 24.785 133.626 25.15 132.596 25.15C131.936 25.15 131.341 24.965 130.811 24.595C130.571 24.425 130.366 24.235 130.196 24.025H130.121V27.85H128.546ZM130.706 19.3C130.316 19.74 130.121 20.365 130.121 21.175C130.121 21.985 130.316 22.615 130.706 23.065C131.106 23.505 131.636 23.725 132.296 23.725C132.996 23.725 133.546 23.505 133.946 23.065C134.346 22.625 134.546 21.995 134.546 21.175C134.546 20.355 134.346 19.725 133.946 19.285C133.546 18.845 132.996 18.625 132.296 18.625C131.636 18.625 131.106 18.85 130.706 19.3ZM138.11 24.055C137.43 23.315 137.09 22.355 137.09 21.175C137.09 19.995 137.43 19.04 138.11 18.31C138.8 17.57 139.66 17.2 140.69 17.2C141.34 17.2 141.935 17.39 142.475 17.77C142.705 17.93 142.91 18.115 143.09 18.325H143.165V17.35H144.74V25H143.165V23.95H143.09C142.94 24.16 142.735 24.36 142.475 24.55C141.935 24.95 141.34 25.15 140.69 25.15C139.66 25.15 138.8 24.785 138.11 24.055ZM139.34 19.285C138.94 19.725 138.74 20.355 138.74 21.175C138.74 21.995 138.94 22.625 139.34 23.065C139.74 23.505 140.29 23.725 140.99 23.725C141.65 23.725 142.175 23.505 142.565 23.065C142.965 22.615 143.165 21.985 143.165 21.175C143.165 20.365 142.965 19.74 142.565 19.3C142.175 18.85 141.65 18.625 140.99 18.625C140.29 18.625 139.74 18.845 139.34 19.285ZM147.194 23.83C146.454 23.07 146.084 22.185 146.084 21.175C146.084 20.165 146.454 19.285 147.194 18.535C147.944 17.775 148.849 17.355 149.909 17.275V14.5H151.484V17.275C152.544 17.355 153.444 17.775 154.184 18.535C154.934 19.285 155.309 20.165 155.309 21.175C155.309 22.185 154.934 23.07 154.184 23.83C153.444 24.58 152.544 24.995 151.484 25.075V27.85H149.909V25.075C148.849 24.995 147.944 24.58 147.194 23.83ZM151.484 18.7V23.65C152.114 23.56 152.634 23.3 153.044 22.87C153.454 22.43 153.659 21.865 153.659 21.175C153.659 20.485 153.454 19.925 153.044 19.495C152.634 19.055 152.114 18.79 151.484 18.7ZM148.349 19.495C147.939 19.925 147.734 20.485 147.734 21.175C147.734 21.865 147.939 22.43 148.349 22.87C148.759 23.3 149.279 23.56 149.909 23.65V18.7C149.279 18.79 148.759 19.055 148.349 19.495ZM156.656 25V17.35H158.231V22.45L158.216 22.6H158.366L161.831 17.35H163.556V25H161.981V19.9L161.996 19.75H161.846L158.381 25H156.656ZM165.357 25V17.35H166.932V20.35H168.057L170.382 17.35H172.182L169.407 20.875L172.407 25H170.457L168.132 21.775H166.932V25H165.357ZM178.16 24.025C177.43 23.275 177.065 22.325 177.065 21.175C177.065 20.025 177.43 19.075 178.16 18.325C178.89 17.575 179.8 17.2 180.89 17.2C182.11 17.2 183.105 17.665 183.875 18.595C184.205 19.025 184.435 19.485 184.565 19.975H182.915C182.845 19.725 182.715 19.5 182.525 19.3C182.135 18.85 181.59 18.625 180.89 18.625C180.27 18.625 179.75 18.86 179.33 19.33C178.92 19.8 178.715 20.415 178.715 21.175C178.715 21.935 178.92 22.55 179.33 23.02C179.75 23.49 180.27 23.725 180.89 23.725C181.61 23.725 182.175 23.5 182.585 23.05C182.765 22.85 182.9 22.625 182.99 22.375H184.565C184.435 22.885 184.205 23.35 183.875 23.77C183.115 24.69 182.12 25.15 180.89 25.15C179.8 25.15 178.89 24.775 178.16 24.025ZM190.04 25V17.35H191.615V20.35H192.74L195.065 17.35H196.865L194.09 20.875L197.09 25H195.14L192.815 21.775H191.615V25H190.04ZM198.271 24.055C197.591 23.315 197.251 22.355 197.251 21.175C197.251 19.995 197.591 19.04 198.271 18.31C198.961 17.57 199.821 17.2 200.851 17.2C201.501 17.2 202.096 17.39 202.636 17.77C202.866 17.93 203.071 18.115 203.251 18.325H203.326V17.35H204.901V25H203.326V23.95H203.251C203.101 24.16 202.896 24.36 202.636 24.55C202.096 24.95 201.501 25.15 200.851 25.15C199.821 25.15 198.961 24.785 198.271 24.055ZM199.501 19.285C199.101 19.725 198.901 20.355 198.901 21.175C198.901 21.995 199.101 22.625 199.501 23.065C199.901 23.505 200.451 23.725 201.151 23.725C201.811 23.725 202.336 23.505 202.726 23.065C203.126 22.615 203.326 21.985 203.326 21.175C203.326 20.365 203.126 19.74 202.726 19.3C202.336 18.85 201.811 18.625 201.151 18.625C200.451 18.625 199.901 18.845 199.501 19.285ZM206.695 25V17.35H208.945L210.97 21.925H211.27L213.295 17.35H215.545V25H213.97V19.6L213.985 19.45H213.91L212.02 23.65H210.22L208.33 19.45H208.255L208.27 19.6V25H206.695ZM218.019 24.01C217.269 23.24 216.894 22.295 216.894 21.175C216.894 20.055 217.269 19.115 218.019 18.355C218.779 17.585 219.704 17.2 220.794 17.2C221.884 17.2 222.804 17.585 223.554 18.355C224.314 19.115 224.694 20.055 224.694 21.175V21.7H218.469C218.589 22.33 218.864 22.825 219.294 23.185C219.724 23.545 220.224 23.725 220.794 23.725C221.494 23.725 222.054 23.55 222.474 23.2C222.664 23.06 222.829 22.885 222.969 22.675H224.619C224.409 23.165 224.144 23.58 223.824 23.92C223.004 24.74 221.994 25.15 220.794 25.15C219.704 25.15 218.779 24.77 218.019 24.01ZM218.544 20.425H223.044C222.954 19.925 222.714 19.5 222.324 19.15C221.944 18.8 221.434 18.625 220.794 18.625C220.254 18.625 219.774 18.79 219.354 19.12C218.934 19.44 218.664 19.875 218.544 20.425ZM226.046 27.85V17.35H227.621V18.325H227.696C227.876 18.115 228.081 17.93 228.311 17.77C228.851 17.39 229.446 17.2 230.096 17.2C231.126 17.2 231.981 17.57 232.661 18.31C233.351 19.04 233.696 19.995 233.696 21.175C233.696 22.355 233.351 23.315 232.661 24.055C231.981 24.785 231.126 25.15 230.096 25.15C229.436 25.15 228.841 24.965 228.311 24.595C228.071 24.425 227.866 24.235 227.696 24.025H227.621V27.85H226.046ZM228.206 19.3C227.816 19.74 227.621 20.365 227.621 21.175C227.621 21.985 227.816 22.615 228.206 23.065C228.606 23.505 229.136 23.725 229.796 23.725C230.496 23.725 231.046 23.505 231.446 23.065C231.846 22.625 232.046 21.995 232.046 21.175C232.046 20.355 231.846 19.725 231.446 19.285C231.046 18.845 230.496 18.625 229.796 18.625C229.136 18.625 228.606 18.85 228.206 19.3ZM27.545 43.025C26.815 42.275 26.45 41.325 26.45 40.175C26.45 39.025 26.815 38.075 27.545 37.325C28.275 36.575 29.185 36.2 30.275 36.2C31.495 36.2 32.49 36.665 33.26 37.595C33.59 38.025 33.82 38.485 33.95 38.975H32.3C32.23 38.725 32.1 38.5 31.91 38.3C31.52 37.85 30.975 37.625 30.275 37.625C29.655 37.625 29.135 37.86 28.715 38.33C28.305 38.8 28.1 39.415 28.1 40.175C28.1 40.935 28.305 41.55 28.715 42.02C29.135 42.49 29.655 42.725 30.275 42.725C30.995 42.725 31.56 42.5 31.97 42.05C32.15 41.85 32.285 41.625 32.375 41.375H33.95C33.82 41.885 33.59 42.35 33.26 42.77C32.5 43.69 31.505 44.15 30.275 44.15C29.185 44.15 28.275 43.775 27.545 43.025ZM35.9103 43.01C35.1503 42.24 34.7703 41.295 34.7703 40.175C34.7703 39.055 35.1503 38.115 35.9103 37.355C36.6803 36.585 37.6253 36.2 38.7453 36.2C39.8653 36.2 40.8053 36.585 41.5653 37.355C42.3353 38.115 42.7203 39.055 42.7203 40.175C42.7203 41.295 42.3353 42.24 41.5653 43.01C40.8053 43.77 39.8653 44.15 38.7453 44.15C37.6253 44.15 36.6803 43.77 35.9103 43.01ZM37.0653 38.33C36.6353 38.79 36.4203 39.405 36.4203 40.175C36.4203 40.945 36.6353 41.565 37.0653 42.035C37.4953 42.495 38.0553 42.725 38.7453 42.725C39.4353 42.725 39.9953 42.495 40.4253 42.035C40.8553 41.565 41.0703 40.945 41.0703 40.175C41.0703 39.405 40.8553 38.79 40.4253 38.33C39.9953 37.86 39.4353 37.625 38.7453 37.625C38.0553 37.625 37.4953 37.86 37.0653 38.33ZM44.713 43.025C43.983 42.275 43.618 41.325 43.618 40.175C43.618 39.025 43.983 38.075 44.713 37.325C45.443 36.575 46.353 36.2 47.443 36.2C48.663 36.2 49.658 36.665 50.428 37.595C50.758 38.025 50.988 38.485 51.118 38.975H49.468C49.398 38.725 49.268 38.5 49.078 38.3C48.688 37.85 48.143 37.625 47.443 37.625C46.823 37.625 46.303 37.86 45.883 38.33C45.473 38.8 45.268 39.415 45.268 40.175C45.268 40.935 45.473 41.55 45.883 42.02C46.303 42.49 46.823 42.725 47.443 42.725C48.163 42.725 48.728 42.5 49.138 42.05C49.318 41.85 49.453 41.625 49.543 41.375H51.118C50.988 41.885 50.758 42.35 50.428 42.77C49.668 43.69 48.673 44.15 47.443 44.15C46.353 44.15 45.443 43.775 44.713 43.025ZM51.5633 37.775V36.35H58.2383V37.775H55.6883V44H54.1133V37.775H51.5633ZM59.7845 43.055C59.1045 42.315 58.7645 41.355 58.7645 40.175C58.7645 38.995 59.1045 38.04 59.7845 37.31C60.4745 36.57 61.3345 36.2 62.3645 36.2C63.0145 36.2 63.6095 36.39 64.1495 36.77C64.3795 36.93 64.5845 37.115 64.7645 37.325H64.8395V36.35H66.4145V44H64.8395V42.95H64.7645C64.6145 43.16 64.4095 43.36 64.1495 43.55C63.6095 43.95 63.0145 44.15 62.3645 44.15C61.3345 44.15 60.4745 43.785 59.7845 43.055ZM61.0145 38.285C60.6145 38.725 60.4145 39.355 60.4145 40.175C60.4145 40.995 60.6145 41.625 61.0145 42.065C61.4145 42.505 61.9645 42.725 62.6645 42.725C63.3245 42.725 63.8495 42.505 64.2395 42.065C64.6395 41.615 64.8395 40.985 64.8395 40.175C64.8395 39.365 64.6395 38.74 64.2395 38.3C63.8495 37.85 63.3245 37.625 62.6645 37.625C61.9645 37.625 61.4145 37.845 61.0145 38.285ZM68.2086 44V36.35H72.0336C72.7636 36.35 73.3336 36.525 73.7436 36.875C74.1536 37.225 74.3586 37.675 74.3586 38.225C74.3586 38.815 74.1586 39.27 73.7586 39.59C73.5586 39.74 73.3586 39.835 73.1586 39.875V39.935C73.4186 39.975 73.6686 40.075 73.9086 40.235C74.4086 40.575 74.6586 41.1 74.6586 41.81C74.6586 42.43 74.4236 42.95 73.9536 43.37C73.4836 43.79 72.8686 44 72.1086 44H68.2086ZM69.7836 39.35H71.8836C72.4836 39.35 72.7836 39.075 72.7836 38.525C72.7836 38.025 72.4836 37.775 71.8836 37.775H69.7836V39.35ZM69.7836 42.575H72.0336C72.3636 42.575 72.6186 42.49 72.7986 42.32C72.9886 42.14 73.0836 41.9 73.0836 41.6C73.0836 41.33 72.9886 41.115 72.7986 40.955C72.6186 40.785 72.3636 40.7 72.0336 40.7H69.7836V42.575ZM75.2645 44L77.3645 36.35H80.7395L82.8395 44H81.1895L79.5395 37.775H78.5645L76.9145 44H75.2645ZM83.5092 44L85.0092 41.225C84.7492 41.105 84.5092 40.945 84.2892 40.745C83.8192 40.295 83.5842 39.705 83.5842 38.975C83.5842 38.205 83.8542 37.575 84.3942 37.085C84.9342 36.595 85.6642 36.35 86.5842 36.35H90.0342V44H88.4592V41.675H86.5092L85.3092 44H83.5092ZM85.2342 38.975C85.2342 39.375 85.3542 39.69 85.5942 39.92C85.8342 40.14 86.1892 40.25 86.6592 40.25H88.4592V37.775H86.6592C86.2192 37.775 85.8692 37.89 85.6092 38.12C85.3592 38.34 85.2342 38.625 85.2342 38.975ZM92.5115 43.01C91.7615 42.24 91.3865 41.295 91.3865 40.175C91.3865 39.055 91.7615 38.115 92.5115 37.355C93.2715 36.585 94.1965 36.2 95.2865 36.2C96.3765 36.2 97.2965 36.585 98.0465 37.355C98.8065 38.115 99.1865 39.055 99.1865 40.175V40.7H92.9615C93.0815 41.33 93.3565 41.825 93.7865 42.185C94.2165 42.545 94.7165 42.725 95.2865 42.725C95.9865 42.725 96.5465 42.55 96.9665 42.2C97.1565 42.06 97.3215 41.885 97.4615 41.675H99.1115C98.9015 42.165 98.6365 42.58 98.3165 42.92C97.4965 43.74 96.4865 44.15 95.2865 44.15C94.1965 44.15 93.2715 43.77 92.5115 43.01ZM93.0365 39.425H97.5365C97.4465 38.925 97.2065 38.5 96.8165 38.15C96.4365 37.8 95.9265 37.625 95.2865 37.625C94.7465 37.625 94.2665 37.79 93.8465 38.12C93.4265 38.44 93.1565 38.875 93.0365 39.425ZM99.7127 37.775V36.35H106.388V37.775H103.838V44H102.263V37.775H99.7127Z" fill="white"/>
<path d="M285.667 20.5V17.1667H272.333V20.5H285.667ZM285.667 22.1667H272.333V28.8333H285.667V22.1667ZM271.5 15.5H286.5C286.721 15.5 286.933 15.5878 287.089 15.7441C287.246 15.9004 287.333 16.1123 287.333 16.3333V29.6667C287.333 29.8877 287.246 30.0996 287.089 30.2559C286.933 30.4122 286.721 30.5 286.5 30.5H271.5C271.279 30.5 271.067 30.4122 270.911 30.2559C270.754 30.0996 270.667 29.8877 270.667 29.6667V16.3333C270.667 16.1123 270.754 15.9004 270.911 15.7441C271.067 15.5878 271.279 15.5 271.5 15.5V15.5ZM273.167 23H275.667V27.1667H273.167V23ZM273.167 18H274.833V19.6667H273.167V18ZM276.5 18H278.167V19.6667H276.5V18Z" fill="#7A7ED0"/>
<path d="M29.392 89.232C28.824 88.632 28.54 87.888 28.54 87C28.54 86.112 28.824 85.372 29.392 84.78C29.968 84.18 30.664 83.88 31.48 83.88C32.432 83.88 33.188 84.232 33.748 84.936C33.996 85.24 34.18 85.588 34.3 85.98H33.58C33.468 85.7 33.32 85.46 33.136 85.26C32.72 84.78 32.168 84.54 31.48 84.54C30.872 84.54 30.348 84.776 29.908 85.248C29.476 85.712 29.26 86.296 29.26 87C29.26 87.704 29.476 88.292 29.908 88.764C30.348 89.228 30.872 89.46 31.48 89.46C32.176 89.46 32.744 89.2 33.184 88.68C33.392 88.44 33.544 88.18 33.64 87.9H34.36C34.24 88.308 34.052 88.68 33.796 89.016C33.188 89.752 32.416 90.12 31.48 90.12C30.664 90.12 29.968 89.824 29.392 89.232ZM34.968 84H35.748L37.128 89.34H38.268L39.828 84H40.608L38.148 92.28H37.368L38.088 90H36.588L34.968 84ZM40.7866 84.66V84H45.8266V84.66H43.6666V90H42.9466V84.66H40.7866ZM46.8428 90V84H47.5628V86.52H49.0028L50.9828 84H51.8228L49.6028 86.88L52.0028 90H51.1628L49.0028 87.18H47.5628V90H46.8428ZM53.0186 90V84H53.7386V88.86L53.7266 88.98H53.7386L57.2186 84H58.0586V90H57.3386V85.14L57.3506 85.02H57.3386L53.8586 90H53.0186Z" fill="white"/>
<path d="M61.1 108.1V107H66.85V108.1H64.55V114H63.4V108.1H61.1ZM67.6473 114V107H71.0973C71.7573 107 72.2806 107.173 72.6673 107.52C73.0539 107.86 73.2473 108.287 73.2473 108.8C73.2473 109.313 73.0706 109.707 72.7173 109.98C72.5706 110.093 72.3973 110.183 72.1973 110.25V110.3C72.4439 110.353 72.6606 110.443 72.8473 110.57C73.2806 110.883 73.4973 111.36 73.4973 112C73.4973 112.593 73.2839 113.077 72.8573 113.45C72.4306 113.817 71.8273 114 71.0473 114H67.6473ZM68.7973 109.85H71.0473C71.3673 109.85 71.6139 109.77 71.7873 109.61C71.9606 109.45 72.0473 109.227 72.0473 108.94C72.0473 108.687 71.9606 108.483 71.7873 108.33C71.6139 108.177 71.3673 108.1 71.0473 108.1H68.7973V109.85ZM68.7973 112.9H70.9973C71.8639 112.9 72.2973 112.567 72.2973 111.9C72.2973 111.233 71.8639 110.9 70.9973 110.9H68.7973V112.9Z" fill="white"/>
<path d="M80.1 204.1V203H85.85V204.1H83.55V210H82.4V204.1H80.1ZM86.6473 210V203H90.0973C90.7573 203 91.2806 203.173 91.6673 203.52C92.0539 203.86 92.2473 204.287 92.2473 204.8C92.2473 205.313 92.0706 205.707 91.7173 205.98C91.5706 206.093 91.3973 206.183 91.1973 206.25V206.3C91.4439 206.353 91.6606 206.443 91.8473 206.57C92.2806 206.883 92.4973 207.36 92.4973 208C92.4973 208.593 92.2839 209.077 91.8573 209.45C91.4306 209.817 90.8273 210 90.0473 210H86.6473ZM87.7973 205.85H90.0473C90.3673 205.85 90.6139 205.77 90.7873 205.61C90.9606 205.45 91.0473 205.227 91.0473 204.94C91.0473 204.687 90.9606 204.483 90.7873 204.33C90.6139 204.177 90.3673 204.1 90.0473 204.1H87.7973V205.85ZM87.7973 208.9H89.9973C90.8639 208.9 91.2973 208.567 91.2973 207.9C91.2973 207.233 90.8639 206.9 89.9973 206.9H87.7973V208.9Z" fill="white"/>
<path d="M26.96 127V125.08L33.84 119.8C36.4 117.837 38.16 116.259 39.12 115.064C40.08 113.869 40.56 112.515 40.56 111C40.56 109.528 40.0373 108.312 38.992 107.352C37.968 106.371 36.624 105.88 34.96 105.88C32.9547 105.88 31.4507 106.712 30.448 108.376C29.9787 109.144 29.6693 109.965 29.52 110.84H27.28C27.4293 109.624 27.824 108.483 28.464 107.416C29.8507 105.112 32.016 103.96 34.96 103.96C37.1573 103.96 38.9813 104.653 40.432 106.04C41.904 107.405 42.64 109.059 42.64 111C42.64 112.771 42.0427 114.435 40.848 115.992C39.6747 117.528 37.9253 119.171 35.6 120.92L30.48 124.792L30.16 125.016V125.112L30.48 125.08H42.64V127H26.96ZM45.05 121.24H47.13C47.3433 122.051 47.7273 122.797 48.282 123.48C49.5193 124.973 51.2687 125.72 53.53 125.72C55.3433 125.72 56.7833 125.24 57.85 124.28C58.9167 123.299 59.45 122.072 59.45 120.6C59.45 119.128 58.9167 117.912 57.85 116.952C56.7833 115.971 55.3433 115.48 53.53 115.48H49.53V113.56L57.53 106.552V106.52H46.17V104.6H60.41V106.52L52.73 113.24L52.41 113.496V113.56H53.53C55.8767 113.56 57.7967 114.243 59.29 115.608C60.7833 116.973 61.53 118.637 61.53 120.6C61.53 122.563 60.7833 124.227 59.29 125.592C57.7967 126.957 55.8767 127.64 53.53 127.64C50.4367 127.64 48.1007 126.573 46.522 124.44C45.8393 123.544 45.3487 122.477 45.05 121.24Z" fill="#7A7ED0"/>
<g opacity="0.24">
<line x1="98" y1="91.5" x2="274" y2="91.5" stroke="white" stroke-dasharray="1 10"/>
<line x1="98" y1="103.5" x2="274" y2="103.5" stroke="white" stroke-dasharray="1 10"/>
<line x1="98" y1="115.5" x2="274" y2="115.5" stroke="white" stroke-dasharray="1 10"/>
<line x1="98" y1="127.5" x2="274" y2="127.5" stroke="white" stroke-dasharray="1 10"/>
<line x1="98" y1="139.5" x2="274" y2="139.5" stroke="white" stroke-dasharray="1 10"/>
<line x1="98" y1="151.5" x2="274" y2="151.5" stroke="white" stroke-dasharray="1 10"/>
</g>
<path d="M98 128.709C100.178 129.233 114.119 136.564 131.545 130.804C142.347 127.233 150.011 123.851 154.13 121.778C155.913 120.881 157.867 120.331 159.863 120.331H180.713C181.906 120.331 183.091 120.137 184.222 119.756L191.699 117.24C192.829 116.86 194.014 116.665 195.207 116.665H229.148C229.715 116.665 230.281 116.709 230.842 116.797L250.759 119.9C252.574 120.183 254.431 120.007 256.16 119.387L274 113" stroke="white"/>
<path d="M28.96 189V183H30.04L32.02 186.84H32.38L34.36 183H35.44V189H34.72V183.96L34.732 183.84H34.72L32.8 187.56H31.6L29.68 183.84H29.668L29.68 183.96V189H28.96ZM37.8063 188.232C37.2303 187.64 36.9423 186.896 36.9423 186C36.9423 185.104 37.2303 184.36 37.8063 183.768C38.3823 183.176 39.0943 182.88 39.9423 182.88C40.7823 182.88 41.4903 183.176 42.0663 183.768C42.6503 184.352 42.9423 185.076 42.9423 185.94V186.24H37.6623C37.6943 186.872 37.9263 187.4 38.3583 187.824C38.7903 188.248 39.3183 188.46 39.9423 188.46C40.6303 188.46 41.1943 188.24 41.6343 187.8C41.8423 187.608 41.9983 187.388 42.1023 187.14H42.8223C42.6783 187.516 42.4743 187.848 42.2103 188.136C41.6183 188.792 40.8623 189.12 39.9423 189.12C39.0943 189.12 38.3823 188.824 37.8063 188.232ZM37.6623 185.58H42.1623C42.0983 184.996 41.8583 184.512 41.4423 184.128C41.0343 183.736 40.5343 183.54 39.9423 183.54C39.3503 183.54 38.8463 183.732 38.4303 184.116C38.0143 184.5 37.7583 184.988 37.6623 185.58ZM44.8725 188.232C44.3045 187.632 44.0205 186.888 44.0205 186C44.0205 185.112 44.3045 184.372 44.8725 183.78C45.4485 183.18 46.1445 182.88 46.9605 182.88C47.9125 182.88 48.6685 183.232 49.2285 183.936C49.4765 184.24 49.6605 184.588 49.7805 184.98H49.0605C48.9485 184.7 48.8005 184.46 48.6165 184.26C48.2005 183.78 47.6485 183.54 46.9605 183.54C46.3525 183.54 45.8285 183.776 45.3885 184.248C44.9565 184.712 44.7405 185.296 44.7405 186C44.7405 186.704 44.9565 187.292 45.3885 187.764C45.8285 188.228 46.3525 188.46 46.9605 188.46C47.6565 188.46 48.2245 188.2 48.6645 187.68C48.8725 187.44 49.0245 187.18 49.1205 186.9H49.8405C49.7205 187.308 49.5325 187.68 49.2765 188.016C48.6685 188.752 47.8965 189.12 46.9605 189.12C46.1445 189.12 45.4485 188.824 44.8725 188.232ZM51.0442 189L52.3042 186.78C51.9682 186.676 51.6722 186.464 51.4162 186.144C51.1682 185.824 51.0442 185.436 51.0442 184.98C51.0442 184.428 51.2522 183.96 51.6682 183.576C52.0842 183.192 52.6162 183 53.2642 183H55.9042V189H55.1842V186.96H52.9642L51.8842 189H51.0442ZM51.7642 184.98C51.7642 185.356 51.9042 185.672 52.1842 185.928C52.4642 186.176 52.8242 186.3 53.2642 186.3H55.1842V183.66H53.2642C52.8242 183.66 52.4642 183.792 52.1842 184.056C51.9042 184.312 51.7642 184.62 51.7642 184.98ZM57.8233 189V183H58.5433V188.34H61.9033V183H62.6233V188.34H63.5233V190.44H62.8033V189H57.8233Z" fill="white"/>
<path opacity="0.4" d="M61.69 208.21C61.43 207.95 61.3 207.647 61.3 207.3C61.3 206.953 61.43 206.65 61.69 206.39C61.9567 206.13 62.2767 206 62.65 206C63.0233 206 63.34 206.13 63.6 206.39C63.8667 206.65 64 206.953 64 207.3C64 207.647 63.8667 207.95 63.6 208.21C63.34 208.47 63.0233 208.6 62.65 208.6C62.2767 208.6 61.9567 208.47 61.69 208.21ZM62.1 207.3C62.1 207.453 62.1533 207.583 62.26 207.69C62.3667 207.797 62.4967 207.85 62.65 207.85C62.81 207.85 62.94 207.803 63.04 207.71C63.1467 207.61 63.2 207.473 63.2 207.3C63.2 207.127 63.1467 206.993 63.04 206.9C62.94 206.8 62.81 206.75 62.65 206.75C62.49 206.75 62.3567 206.8 62.25 206.9C62.15 206.993 62.1 207.127 62.1 207.3Z" fill="white"/>
<path d="M27.28 218.8C27.28 218.437 27.2907 218.096 27.312 217.776C27.3547 217.456 27.4293 217.125 27.536 216.784C27.6427 216.443 27.7173 216.165 27.76 215.952C27.8027 215.717 27.9307 215.419 28.144 215.056C28.3787 214.693 28.528 214.448 28.592 214.32C28.656 214.171 28.8373 213.893 29.136 213.488C29.456 213.061 29.648 212.805 29.712 212.72C29.776 212.635 30.0107 212.347 30.416 211.856C30.8213 211.344 31.056 211.045 31.12 210.96L36.88 203.6H39.28L33.36 211.088L33.232 211.248L33.2 211.28L33.84 211.12C34.3733 211.013 35.0667 210.96 35.92 210.96C38.16 210.96 40.048 211.728 41.584 213.264C43.1413 214.779 43.92 216.624 43.92 218.8C43.92 220.976 43.12 222.832 41.52 224.368C39.9413 225.883 37.968 226.64 35.6 226.64C33.232 226.64 31.248 225.883 29.648 224.368C28.0693 222.832 27.28 220.976 27.28 218.8ZM31.12 214.576C29.9467 215.707 29.36 217.115 29.36 218.8C29.36 220.485 29.9467 221.893 31.12 223.024C32.2933 224.155 33.7867 224.72 35.6 224.72C37.4133 224.72 38.9067 224.155 40.08 223.024C41.2533 221.893 41.84 220.485 41.84 218.8C41.84 217.115 41.2533 215.707 40.08 214.576C38.9067 213.445 37.4133 212.88 35.6 212.88C33.7867 212.88 32.2933 213.445 31.12 214.576ZM49.119 216.368C47.583 214.832 46.815 212.976 46.815 210.8C46.815 208.624 47.6043 206.779 49.183 205.264C50.783 203.728 52.767 202.96 55.135 202.96C57.503 202.96 59.4763 203.728 61.055 205.264C62.655 206.779 63.455 208.624 63.455 210.8C63.455 211.163 63.4337 211.504 63.391 211.824C63.3697 212.144 63.3057 212.475 63.199 212.816C63.0923 213.157 63.0177 213.445 62.975 213.68C62.9323 213.893 62.7937 214.181 62.559 214.544C62.3457 214.907 62.207 215.163 62.143 215.312C62.079 215.44 61.887 215.717 61.567 216.144C61.2683 216.549 61.087 216.795 61.023 216.88C60.959 216.965 60.7243 217.264 60.319 217.776C59.9137 218.267 59.679 218.555 59.615 218.64L53.855 226H51.455L57.375 218.512L57.503 218.352L57.535 218.32C57.343 218.405 57.1297 218.459 56.895 218.48C56.3617 218.587 55.6683 218.64 54.815 218.64C52.575 218.64 50.6763 217.883 49.119 216.368ZM50.655 206.576C49.4817 207.707 48.895 209.115 48.895 210.8C48.895 212.485 49.4817 213.893 50.655 215.024C51.8283 216.155 53.3217 216.72 55.135 216.72C56.9483 216.72 58.4417 216.155 59.615 215.024C60.7883 213.893 61.375 212.485 61.375 210.8C61.375 209.115 60.7883 207.707 59.615 206.576C58.4417 205.445 56.9483 204.88 55.135 204.88C53.3217 204.88 51.8283 205.445 50.655 206.576ZM65.71 220.88V218.96L73.71 203.6H75.95L67.95 218.96H77.71V212.88H77.87H79.79V218.96H83.15V220.88H79.79V226H77.71V220.88H65.71Z" fill="#7A7ED0"/>
<g opacity="0.24">
<line x1="98" y1="190.5" x2="273.543" y2="190.5" stroke="white" stroke-dasharray="1 10"/>
<line x1="98" y1="202.5" x2="273.543" y2="202.5" stroke="white" stroke-dasharray="1 10"/>
<line x1="98" y1="214.5" x2="273.543" y2="214.5" stroke="white" stroke-dasharray="1 10"/>
<line x1="98" y1="226.5" x2="273.543" y2="226.5" stroke="white" stroke-dasharray="1 10"/>
<line x1="98" y1="238.5" x2="273.543" y2="238.5" stroke="white" stroke-dasharray="1 10"/>
<line x1="98" y1="250.5" x2="273.543" y2="250.5" stroke="white" stroke-dasharray="1 10"/>
</g>
<path d="M95 224.5L112 221.5L124.943 220.142H145.368L163.173 221.44C163.723 221.48 164.276 221.478 164.827 221.436L177.707 220.432C180.126 220.244 182.565 220.977 184.975 221.253C189.058 221.72 194.168 220.578 196 221.5C198.227 222.62 204.086 220.98 209.505 220.303C210.496 220.179 211.474 219.964 212.408 219.613L230 213L245 209L258.936 206.677C261.557 206.241 263.93 204.87 265.619 202.82L270 197.5" stroke="white"/>
<path opacity="0.6" d="M26 68.5002L291 68.5002" stroke="white"/>
<path opacity="0.6" d="M26 168L291 168" stroke="white"/>
<path opacity="0.6" d="M26 267L291 267" stroke="white"/>
</svg>
