<svg xmlns="http://www.w3.org/2000/svg" width="307" height="299" fill="none" viewBox="0 0 307 299">
  <path stroke="#fff" d="M8 .5h291c4.142 0 7.5 3.3579 7.5 7.5v283c0 4.142-3.358 7.5-7.5 7.5H18c-4.1421 0-7.5-3.358-7.5-7.5V99.0914a8.5 8.5 0 0 0-3.0393-6.5139l-4.279-3.5872A7.5 7.5 0 0 1 .5 83.2428V8C.5 3.8579 3.8579.5 8 .5Z" opacity=".24"/>
  <path fill="#fff" d="M27.05 25V14.5h7.575v1.65h-5.85v2.7H33.5v1.65h-4.725v2.85h5.85V25H27.05Zm8.1803 0 2.85-4.125-2.625-3.525h1.8l2.175 3h.975v-3h1.575v3h.975l2.175-3h1.8l-2.625 3.525 2.85 4.125h-1.875l-2.25-3.225h-1.05V25h-1.575v-3.225h-1.05L37.1053 25h-1.875Zm13.2773-.99c-.75-.77-1.125-1.715-1.125-2.835 0-1.12.375-2.06 1.125-2.82.76-.77 1.685-1.155 2.775-1.155 1.09 0 2.01.385 2.76 1.155.76.76 1.14 1.7 1.14 2.82v.525h-6.225c.12.63.395 1.125.825 1.485.43.36.93.54 1.5.54.7 0 1.26-.175 1.68-.525.19-.14.355-.315.495-.525h1.65c-.21.49-.475.905-.795 1.245-.82.82-1.83 1.23-3.03 1.23-1.09 0-2.015-.38-2.775-1.14Zm.525-3.585h4.5c-.09-.5-.33-.925-.72-1.275-.38-.35-.89-.525-1.53-.525-.54 0-1.02.165-1.44.495-.42.32-.69.755-.81 1.305Zm6.6762 6.225v-3.075h.75l1.725-6.225h3.375l1.725 6.225h.75v3.075h-1.425V25h-5.475v1.65h-1.425Zm2.4-3.075h3.525l-1.275-4.8h-.975l-1.275 4.8ZM65.0152 25v-7.65h1.575v3.075h3.75V17.35h1.575V25h-1.575v-3.15h-3.75V25h-1.575Zm9.3762-.99c-.75-.77-1.125-1.715-1.125-2.835 0-1.12.375-2.06 1.125-2.82.76-.77 1.685-1.155 2.775-1.155 1.09 0 2.01.385 2.76 1.155.76.76 1.14 1.7 1.14 2.82v.525h-6.225c.12.63.395 1.125.825 1.485.43.36.93.54 1.5.54.7 0 1.26-.175 1.68-.525.19-.14.355-.315.495-.525h1.65c-.21.49-.475.905-.795 1.245-.82.82-1.83 1.23-3.03 1.23-1.09 0-2.015-.38-2.775-1.14Zm.525-3.585h4.5c-.09-.5-.33-.925-.72-1.275-.38-.35-.89-.525-1.53-.525-.54 0-1.02.165-1.44.495-.42.32-.69.755-.81 1.305ZM82.4176 25v-7.65h3.825c.73 0 1.3.175 1.71.525.41.35.615.8.615 1.35 0 .59-.2 1.045-.6 1.365-.2.15-.4.245-.6.285v.06c.26.04.51.14.75.3.5.34.75.865.75 1.575 0 .62-.235 1.14-.705 1.56-.47.42-1.085.63-1.845.63h-3.9Zm1.575-4.65h2.1c.6 0 .9-.275.9-.825 0-.5-.3-.75-.9-.75h-2.1v1.575Zm0 3.225h2.25c.33 0 .585-.085.765-.255.19-.18.285-.42.285-.72 0-.27-.095-.485-.285-.645-.18-.17-.435-.255-.765-.255h-2.25v1.875ZM90.2984 25v-7.65h1.575v3.075h3.75V17.35h1.575V25h-1.575v-3.15h-3.75V25h-1.575ZM105.9 25v-7.65h1.575V25H105.9Zm-6.9004 0v-7.65h1.5754v2.55h1.575c.88 0 1.585.24 2.115.72.54.48.81 1.09.81 1.83s-.27 1.35-.81 1.83c-.53.48-1.235.72-2.115.72h-3.1504Zm1.5754-1.425h1.575c.41 0 .725-.1.945-.3.22-.2.33-.475.33-.825s-.11-.625-.33-.825c-.22-.2-.535-.3-.945-.3h-1.575v2.25ZM109.268 25v-7.65h1.575v5.1l-.015.15h.15l3.465-5.25h1.725V25h-1.575v-5.1l.015-.15h-.15L110.993 25h-1.725Zm1.125-10.65h1.275c0 .55.35.825 1.05.825.7 0 1.05-.275 1.05-.825h1.275c0 .59-.2 1.065-.6 1.425-.39.35-.965.525-1.725.525-.76 0-1.34-.175-1.74-.525-.39-.36-.585-.835-.585-1.425Zm10.501 4.425V17.35h6.675v1.425h-2.55V25h-1.575v-6.225h-2.55Zm7.652 9.075v-10.5h1.575v.975h.075c.18-.21.385-.395.615-.555.54-.38 1.135-.57 1.785-.57 1.03 0 1.885.37 2.565 1.11.69.73 1.035 1.685 1.035 2.865 0 1.18-.345 2.14-1.035 2.88-.68.73-1.535 1.095-2.565 1.095-.66 0-1.255-.185-1.785-.555-.24-.17-.445-.36-.615-.57h-.075v3.825h-1.575Zm2.16-8.55c-.39.44-.585 1.065-.585 1.875s.195 1.44.585 1.89c.4.44.93.66 1.59.66.7 0 1.25-.22 1.65-.66.4-.44.6-1.07.6-1.89 0-.82-.2-1.45-.6-1.89-.4-.44-.95-.66-1.65-.66-.66 0-1.19.225-1.59.675Zm7.404 4.755c-.68-.74-1.02-1.7-1.02-2.88s.34-2.135 1.02-2.865c.69-.74 1.55-1.11 2.58-1.11.65 0 1.245.19 1.785.57.23.16.435.345.615.555h.075v-.975h1.575V25h-1.575v-1.05h-.075c-.15.21-.355.41-.615.6-.54.4-1.135.6-1.785.6-1.03 0-1.89-.365-2.58-1.095Zm1.23-4.77c-.4.44-.6 1.07-.6 1.89 0 .82.2 1.45.6 1.89.4.44.95.66 1.65.66.66 0 1.185-.22 1.575-.66.4-.45.6-1.08.6-1.89 0-.81-.2-1.435-.6-1.875-.39-.45-.915-.675-1.575-.675-.7 0-1.25.22-1.65.66Zm7.854 4.545c-.74-.76-1.11-1.645-1.11-2.655 0-1.01.37-1.89 1.11-2.64.75-.76 1.655-1.18 2.715-1.26V14.5h1.575v2.775c1.06.08 1.96.5 2.7 1.26.75.75 1.125 1.63 1.125 2.64 0 1.01-.375 1.895-1.125 2.655-.74.75-1.64 1.165-2.7 1.245v2.775h-1.575v-2.775c-1.06-.08-1.965-.495-2.715-1.245Zm4.29-5.13v4.95c.63-.09 1.15-.35 1.56-.78.41-.44.615-1.005.615-1.695 0-.69-.205-1.25-.615-1.68-.41-.44-.93-.705-1.56-.795Zm-3.135.795c-.41.43-.615.99-.615 1.68s.205 1.255.615 1.695c.41.43.93.69 1.56.78V18.7c-.63.09-1.15.355-1.56.795ZM156.656 25v-7.65h1.575v5.1l-.015.15h.15l3.465-5.25h1.725V25h-1.575v-5.1l.015-.15h-.15L158.381 25h-1.725Zm8.701 0v-7.65h1.575v3h1.125l2.325-3h1.8l-2.775 3.525 3 4.125h-1.95l-2.325-3.225h-1.2V25h-1.575Zm12.803-.975c-.73-.75-1.095-1.7-1.095-2.85 0-1.15.365-2.1 1.095-2.85s1.64-1.125 2.73-1.125c1.22 0 2.215.465 2.985 1.395.33.43.56.89.69 1.38h-1.65c-.07-.25-.2-.475-.39-.675-.39-.45-.935-.675-1.635-.675-.62 0-1.14.235-1.56.705-.41.47-.615 1.085-.615 1.845s.205 1.375.615 1.845c.42.47.94.705 1.56.705.72 0 1.285-.225 1.695-.675.18-.2.315-.425.405-.675h1.575c-.13.51-.36.975-.69 1.395-.76.92-1.755 1.38-2.985 1.38-1.09 0-2-.375-2.73-1.125Zm11.88.975v-7.65h1.575v3h1.125l2.325-3h1.8l-2.775 3.525 3 4.125h-1.95l-2.325-3.225h-1.2V25h-1.575Zm8.231-.945c-.68-.74-1.02-1.7-1.02-2.88s.34-2.135 1.02-2.865c.69-.74 1.55-1.11 2.58-1.11.65 0 1.245.19 1.785.57.23.16.435.345.615.555h.075v-.975h1.575V25h-1.575v-1.05h-.075c-.15.21-.355.41-.615.6-.54.4-1.135.6-1.785.6-1.03 0-1.89-.365-2.58-1.095Zm1.23-4.77c-.4.44-.6 1.07-.6 1.89 0 .82.2 1.45.6 1.89.4.44.95.66 1.65.66.66 0 1.185-.22 1.575-.66.4-.45.6-1.08.6-1.89 0-.81-.2-1.435-.6-1.875-.39-.45-.915-.675-1.575-.675-.7 0-1.25.22-1.65.66ZM206.695 25v-7.65h2.25l2.025 4.575h.3l2.025-4.575h2.25V25h-1.575v-5.4l.015-.15h-.075l-1.89 4.2h-1.8l-1.89-4.2h-.075l.015.15V25h-1.575Zm11.324-.99c-.75-.77-1.125-1.715-1.125-2.835 0-1.12.375-2.06 1.125-2.82.76-.77 1.685-1.155 2.775-1.155 1.09 0 2.01.385 2.76 1.155.76.76 1.14 1.7 1.14 2.82v.525h-6.225c.12.63.395 1.125.825 1.485.43.36.93.54 1.5.54.7 0 1.26-.175 1.68-.525.19-.14.355-.315.495-.525h1.65c-.21.49-.475.905-.795 1.245-.82.82-1.83 1.23-3.03 1.23-1.09 0-2.015-.38-2.775-1.14Zm.525-3.585h4.5c-.09-.5-.33-.925-.72-1.275-.38-.35-.89-.525-1.53-.525-.54 0-1.02.165-1.44.495-.42.32-.69.755-.81 1.305Zm7.502 7.425v-10.5h1.575v.975h.075c.18-.21.385-.395.615-.555.54-.38 1.135-.57 1.785-.57 1.03 0 1.885.37 2.565 1.11.69.73 1.035 1.685 1.035 2.865 0 1.18-.345 2.14-1.035 2.88-.68.73-1.535 1.095-2.565 1.095-.66 0-1.255-.185-1.785-.555-.24-.17-.445-.36-.615-.57h-.075v3.825h-1.575Zm2.16-8.55c-.39.44-.585 1.065-.585 1.875s.195 1.44.585 1.89c.4.44.93.66 1.59.66.7 0 1.25-.22 1.65-.66.4-.44.6-1.07.6-1.89 0-.82-.2-1.45-.6-1.89-.4-.44-.95-.66-1.65-.66-.66 0-1.19.225-1.59.675ZM27.545 43.025c-.73-.75-1.095-1.7-1.095-2.85 0-1.15.365-2.1 1.095-2.85s1.64-1.125 2.73-1.125c1.22 0 2.215.465 2.985 1.395.33.43.56.89.69 1.38H32.3c-.07-.25-.2-.475-.39-.675-.39-.45-.935-.675-1.635-.675-.62 0-1.14.235-1.56.705-.41.47-.615 1.085-.615 1.845s.205 1.375.615 1.845c.42.47.94.705 1.56.705.72 0 1.285-.225 1.695-.675.18-.2.315-.425.405-.675h1.575c-.13.51-.36.975-.69 1.395-.76.92-1.755 1.38-2.985 1.38-1.09 0-2-.375-2.73-1.125Zm8.3653-.015c-.76-.77-1.14-1.715-1.14-2.835 0-1.12.38-2.06 1.14-2.82.77-.77 1.715-1.155 2.835-1.155 1.12 0 2.06.385 2.82 1.155.77.76 1.155 1.7 1.155 2.82 0 1.12-.385 2.065-1.155 2.835-.76.76-1.7 1.14-2.82 1.14-1.12 0-2.065-.38-2.835-1.14Zm1.155-4.68c-.43.46-.645 1.075-.645 1.845s.215 1.39.645 1.86c.43.46.99.69 1.68.69s1.25-.23 1.68-.69c.43-.47.645-1.09.645-1.86s-.215-1.385-.645-1.845c-.43-.47-.99-.705-1.68-.705s-1.25.235-1.68.705Zm7.6477 4.695c-.73-.75-1.095-1.7-1.095-2.85 0-1.15.365-2.1 1.095-2.85s1.64-1.125 2.73-1.125c1.22 0 2.215.465 2.985 1.395.33.43.56.89.69 1.38h-1.65c-.07-.25-.2-.475-.39-.675-.39-.45-.935-.675-1.635-.675-.62 0-1.14.235-1.56.705-.41.47-.615 1.085-.615 1.845s.205 1.375.615 1.845c.42.47.94.705 1.56.705.72 0 1.285-.225 1.695-.675.18-.2.315-.425.405-.675h1.575c-.13.51-.36.975-.69 1.395-.76.92-1.755 1.38-2.985 1.38-1.09 0-2-.375-2.73-1.125Zm6.8503-5.25V36.35h6.675v1.425h-2.55V44h-1.575v-6.225h-2.55Zm8.2212 5.28c-.68-.74-1.02-1.7-1.02-2.88s.34-2.135 1.02-2.865c.69-.74 1.55-1.11 2.58-1.11.65 0 1.245.19 1.785.57.23.16.435.345.615.555h.075v-.975h1.575V44h-1.575v-1.05h-.075c-.15.21-.355.41-.615.6-.54.4-1.135.6-1.785.6-1.03 0-1.89-.365-2.58-1.095Zm1.23-4.77c-.4.44-.6 1.07-.6 1.89 0 .82.2 1.45.6 1.89.4.44.95.66 1.65.66.66 0 1.185-.22 1.575-.66.4-.45.6-1.08.6-1.89 0-.81-.2-1.435-.6-1.875-.39-.45-.915-.675-1.575-.675-.7 0-1.25.22-1.65.66ZM68.2086 44v-7.65h3.825c.73 0 1.3.175 1.71.525.41.35.615.8.615 1.35 0 .59-.2 1.045-.6 1.365-.2.15-.4.245-.6.285v.06c.26.04.51.14.75.3.5.34.75.865.75 1.575 0 .62-.235 1.14-.705 1.56-.47.42-1.085.63-1.845.63h-3.9Zm1.575-4.65h2.1c.6 0 .9-.275.9-.825 0-.5-.3-.75-.9-.75h-2.1v1.575Zm0 3.225h2.25c.33 0 .585-.085.765-.255.19-.18.285-.42.285-.72 0-.27-.095-.485-.285-.645-.18-.17-.435-.255-.765-.255h-2.25v1.875ZM75.2645 44l2.1-7.65h3.375l2.1 7.65h-1.65l-1.65-6.225h-.975L76.9145 44h-1.65Zm8.2447 0 1.5-2.775c-.26-.12-.5-.28-.72-.48-.47-.45-.705-1.04-.705-1.77 0-.77.27-1.4.81-1.89s1.27-.735 2.19-.735h3.45V44h-1.575v-2.325h-1.95l-1.2 2.325h-1.8Zm1.725-5.025c0 .4.12.715.36.945.24.22.595.33 1.065.33h1.8v-2.475h-1.8c-.44 0-.79.115-1.05.345-.25.22-.375.505-.375.855Zm7.2773 4.035c-.75-.77-1.125-1.715-1.125-2.835 0-1.12.375-2.06 1.125-2.82.76-.77 1.685-1.155 2.775-1.155 1.09 0 2.01.385 2.76 1.155.76.76 1.14 1.7 1.14 2.82v.525h-6.225c.12.63.395 1.125.825 1.485.43.36.93.54 1.5.54.7 0 1.26-.175 1.68-.525.19-.14.355-.315.495-.525h1.65c-.21.49-.475.905-.795 1.245-.82.82-1.83 1.23-3.03 1.23-1.09 0-2.015-.38-2.775-1.14Zm.525-3.585h4.5c-.09-.5-.33-.925-.72-1.275-.38-.35-.89-.525-1.53-.525-.54 0-1.02.165-1.44.495-.42.32-.69.755-.81 1.305Zm6.6762-1.65V36.35h6.6753v1.425h-2.55V44h-1.575v-6.225h-2.5503Z"/>
  <path fill="#7A7ED0" d="M285.667 20.5v-3.3333h-13.334V20.5h13.334Zm0 1.6667h-13.334v6.6666h13.334v-6.6666ZM271.5 15.5h15c.221 0 .433.0878.589.2441a.8302.8302 0 0 1 .244.5892v13.3334c0 .221-.087.4329-.244.5892a.8322.8322 0 0 1-.589.2441h-15a.8322.8322 0 0 1-.589-.2441.8302.8302 0 0 1-.244-.5892V16.3333c0-.221.087-.4329.244-.5892a.8322.8322 0 0 1 .589-.2441Zm1.667 7.5h2.5v4.1667h-2.5V23Zm0-5h1.666v1.6667h-1.666V18Zm3.333 0h1.667v1.6667H276.5V18Z"/>
  <path fill="#fff" d="M29.392 89.232c-.568-.6-.852-1.344-.852-2.232 0-.888.284-1.628.852-2.22.576-.6 1.272-.9 2.088-.9.952 0 1.708.352 2.268 1.056.248.304.432.652.552 1.044h-.72c-.112-.28-.26-.52-.444-.72-.416-.48-.968-.72-1.656-.72-.608 0-1.132.236-1.572.708-.432.464-.648 1.048-.648 1.752s.216 1.292.648 1.764c.44.464.964.696 1.572.696.696 0 1.264-.26 1.704-.78.208-.24.36-.5.456-.78h.72c-.12.408-.308.78-.564 1.116-.608.736-1.38 1.104-2.316 1.104-.816 0-1.512-.296-2.088-.888ZM34.968 84h.78l1.38 5.34h1.14l1.56-5.34h.78l-2.46 8.28h-.78l.72-2.28h-1.5l-1.62-6Zm5.8186.66V84h5.04v.66h-2.16V90h-.72v-5.34h-2.16ZM46.8428 90v-6h.72v2.52h1.44l1.98-2.52h.84l-2.22 2.88 2.4 3.12h-.84l-2.16-2.82h-1.44V90h-.72Zm6.1758 0v-6h.72v4.86l-.012.12h.012l3.48-4.98h.84v6h-.72v-4.86l.012-.12h-.012l-3.48 4.98h-.84ZM61.1 108.1V107h5.75v1.1h-2.3v5.9H63.4v-5.9h-2.3Zm6.5473 5.9v-7h3.45c.66 0 1.1833.173 1.57.52.3866.34.58.767.58 1.28s-.1767.907-.53 1.18c-.1467.113-.32.203-.52.27v.05c.2466.053.4633.143.65.27.4333.313.65.79.65 1.43 0 .593-.2134 1.077-.64 1.45-.4267.367-1.03.55-1.81.55h-3.4Zm1.15-4.15h2.25c.32 0 .5666-.08.74-.24.1733-.16.26-.383.26-.67 0-.253-.0867-.457-.26-.61-.1734-.153-.42-.23-.74-.23h-2.25v1.75Zm0 3.05h2.2c.8666 0 1.3-.333 1.3-1s-.4334-1-1.3-1h-2.2v2ZM80.1 204.1V203h5.75v1.1h-2.3v5.9H82.4v-5.9h-2.3Zm6.5473 5.9v-7h3.45c.66 0 1.1833.173 1.57.52.3866.34.58.767.58 1.28s-.1767.907-.53 1.18c-.1467.113-.32.203-.52.27v.05c.2466.053.4633.143.65.27.4333.313.65.79.65 1.43 0 .593-.2134 1.077-.64 1.45-.4267.367-1.03.55-1.81.55h-3.4Zm1.15-4.15h2.25c.32 0 .5666-.08.74-.24.1733-.16.26-.383.26-.67 0-.253-.0867-.457-.26-.61-.1734-.153-.42-.23-.74-.23h-2.25v1.75Zm0 3.05h2.2c.8666 0 1.3-.333 1.3-1s-.4334-1-1.3-1h-2.2v2Z"/>
  <path fill="#7A7ED0" d="M26.96 127v-1.92l6.88-5.28c2.56-1.963 4.32-3.541 5.28-4.736.96-1.195 1.44-2.549 1.44-4.064 0-1.472-.5227-2.688-1.568-3.648-1.024-.981-2.368-1.472-4.032-1.472-2.0053 0-3.5093.832-4.512 2.496-.4693.768-.7787 1.589-.928 2.464h-2.24c.1493-1.216.544-2.357 1.184-3.424 1.3867-2.304 3.552-3.456 6.496-3.456 2.1973 0 4.0213.693 5.472 2.08 1.472 1.365 2.208 3.019 2.208 4.96 0 1.771-.5973 3.435-1.792 4.992-1.1733 1.536-2.9227 3.179-5.248 4.928l-5.12 3.872-.32.224v.096l.32-.032h12.16V127H26.96Zm18.09-5.76h2.08c.2133.811.5973 1.557 1.152 2.24 1.2373 1.493 2.9867 2.24 5.248 2.24 1.8133 0 3.2533-.48 4.32-1.44 1.0667-.981 1.6-2.208 1.6-3.68s-.5333-2.688-1.6-3.648c-1.0667-.981-2.5067-1.472-4.32-1.472h-4v-1.92l8-7.008v-.032H46.17v-1.92h14.24v1.92l-7.68 6.72-.32.256v.064h1.12c2.3467 0 4.2667.683 5.76 2.048 1.4933 1.365 2.24 3.029 2.24 4.992s-.7467 3.627-2.24 4.992c-1.4933 1.365-3.4133 2.048-5.76 2.048-3.0933 0-5.4293-1.067-7.008-3.2-.6827-.896-1.1733-1.963-1.472-3.2Z"/>
  <path stroke="#fff" stroke-dasharray="1 10" d="M98 91.5h176m-176 12h176m-176 12h176m-176 12h176m-176 12h176m-176 12h176" opacity=".24"/>
  <path stroke="#fff" d="M98 128.709c2.178.524 16.119 7.855 33.545 2.095 10.802-3.571 18.466-6.953 22.585-9.026 1.783-.897 3.737-1.447 5.733-1.447h20.85c1.193 0 2.378-.194 3.509-.575l7.477-2.516c1.13-.38 2.315-.575 3.508-.575h33.941c.567 0 1.133.044 1.694.132l19.917 3.103c1.815.283 3.672.107 5.401-.513L274 113"/>
  <path fill="#fff" d="M28.96 189v-6h1.08l1.98 3.84h.36l1.98-3.84h1.08v6h-.72v-5.04l.012-.12h-.012l-1.92 3.72h-1.2l-1.92-3.72h-.012l.012.12V189h-.72Zm8.8463-.768c-.576-.592-.864-1.336-.864-2.232 0-.896.288-1.64.864-2.232.576-.592 1.288-.888 2.136-.888.84 0 1.548.296 2.124.888.584.584.876 1.308.876 2.172v.3h-5.28c.032.632.264 1.16.696 1.584.432.424.96.636 1.584.636.688 0 1.252-.22 1.692-.66.208-.192.364-.412.468-.66h.72c-.144.376-.348.708-.612.996-.592.656-1.348.984-2.268.984-.848 0-1.56-.296-2.136-.888Zm-.144-2.652h4.5c-.064-.584-.304-1.068-.72-1.452-.408-.392-.908-.588-1.5-.588s-1.096.192-1.512.576c-.416.384-.672.872-.768 1.464Zm7.2102 2.652c-.568-.6-.852-1.344-.852-2.232 0-.888.284-1.628.852-2.22.576-.6 1.272-.9 2.088-.9.952 0 1.708.352 2.268 1.056.248.304.432.652.552 1.044h-.72c-.112-.28-.26-.52-.444-.72-.416-.48-.968-.72-1.656-.72-.608 0-1.132.236-1.572.708-.432.464-.648 1.048-.648 1.752s.216 1.292.648 1.764c.44.464.964.696 1.572.696.696 0 1.264-.26 1.704-.78.208-.24.36-.5.456-.78h.72c-.12.408-.308.78-.564 1.116-.608.736-1.38 1.104-2.316 1.104-.816 0-1.512-.296-2.088-.888Zm6.1717.768 1.26-2.22c-.336-.104-.632-.316-.888-.636-.248-.32-.372-.708-.372-1.164 0-.552.208-1.02.624-1.404.416-.384.948-.576 1.596-.576h2.64v6h-.72v-2.04h-2.22l-1.08 2.04h-.84Zm.72-4.02c0 .376.14.692.42.948.28.248.64.372 1.08.372h1.92v-2.64h-1.92c-.44 0-.8.132-1.08.396-.28.256-.42.564-.42.924Zm6.0591 4.02v-6h.72v5.34h3.36V183h.72v5.34h.9v2.1h-.72V189h-4.98Z"/>
  <path fill="#fff" d="M61.69 208.21c-.26-.26-.39-.563-.39-.91 0-.347.13-.65.39-.91.2667-.26.5867-.39.96-.39.3733 0 .69.13.95.39.2667.26.4.563.4.91 0 .347-.1333.65-.4.91-.26.26-.5767.39-.95.39-.3733 0-.6933-.13-.96-.39Zm.41-.91c0 .153.0533.283.16.39.1067.107.2367.16.39.16.16 0 .29-.047.39-.14.1067-.1.16-.237.16-.41s-.0533-.307-.16-.4c-.1-.1-.23-.15-.39-.15s-.2933.05-.4.15c-.1.093-.15.227-.15.4Z" opacity=".4"/>
  <path fill="#7A7ED0" d="M27.28 218.8c0-.363.0107-.704.032-1.024.0427-.32.1173-.651.224-.992.1067-.341.1813-.619.224-.832.0427-.235.1707-.533.384-.896.2347-.363.384-.608.448-.736.064-.149.2453-.427.544-.832.32-.427.512-.683.576-.768.064-.085.2987-.373.704-.864.4053-.512.64-.811.704-.896l5.76-7.36h2.4l-5.92 7.488-.128.16-.032.032.64-.16c.5333-.107 1.2267-.16 2.08-.16 2.24 0 4.128.768 5.664 2.304 1.5573 1.515 2.336 3.36 2.336 5.536 0 2.176-.8 4.032-2.4 5.568-1.5787 1.515-3.552 2.272-5.92 2.272s-4.352-.757-5.952-2.272c-1.5787-1.536-2.368-3.392-2.368-5.568Zm3.84-4.224c-1.1733 1.131-1.76 2.539-1.76 4.224s.5867 3.093 1.76 4.224c1.1733 1.131 2.6667 1.696 4.48 1.696 1.8133 0 3.3067-.565 4.48-1.696 1.1733-1.131 1.76-2.539 1.76-4.224s-.5867-3.093-1.76-4.224c-1.1733-1.131-2.6667-1.696-4.48-1.696-1.8133 0-3.3067.565-4.48 1.696Zm17.999 1.792c-1.536-1.536-2.304-3.392-2.304-5.568 0-2.176.7893-4.021 2.368-5.536 1.6-1.536 3.584-2.304 5.952-2.304s4.3413.768 5.92 2.304c1.6 1.515 2.4 3.36 2.4 5.536 0 .363-.0213.704-.064 1.024-.0213.32-.0853.651-.192.992-.1067.341-.1813.629-.224.864-.0427.213-.1813.501-.416.864-.2133.363-.352.619-.416.768-.064.128-.256.405-.576.832-.2987.405-.48.651-.544.736-.064.085-.2987.384-.704.896-.4053.491-.64.779-.704.864l-5.76 7.36h-2.4l5.92-7.488.128-.16.032-.032c-.192.085-.4053.139-.64.16-.5333.107-1.2267.16-2.08.16-2.24 0-4.1387-.757-5.696-2.272Zm1.536-9.792c-1.1733 1.131-1.76 2.539-1.76 4.224s.5867 3.093 1.76 4.224c1.1733 1.131 2.6667 1.696 4.48 1.696 1.8133 0 3.3067-.565 4.48-1.696 1.1733-1.131 1.76-2.539 1.76-4.224s-.5867-3.093-1.76-4.224c-1.1733-1.131-2.6667-1.696-4.48-1.696-1.8133 0-3.3067.565-4.48 1.696ZM65.71 220.88v-1.92l8-15.36h2.24l-8 15.36h9.76v-6.08h2.08v6.08h3.36v1.92h-3.36V226h-2.08v-5.12h-12Z"/>
  <path stroke="#fff" stroke-dasharray="1 10" d="M98 190.5h175.543M98 202.5h175.543M98 214.5h175.543M98 226.5h175.543M98 238.5h175.543M98 250.5h175.543" opacity=".24"/>
  <path stroke="#fff" d="m95 224.5 17-3 12.943-1.358h20.425l17.805 1.298c.55.04 1.103.038 1.654-.004l12.88-1.004c2.419-.188 4.858.545 7.268.821 4.083.467 9.193-.675 11.025.247 2.227 1.12 8.086-.52 13.505-1.197.991-.124 1.969-.339 2.903-.69L230 213l15-4 13.936-2.323a10.998 10.998 0 0 0 6.683-3.857L270 197.5"/>
  <path stroke="#fff" d="M26 68.5002h265M26 168h265M26 267h265" opacity=".6"/>
</svg>
